<svg width="3996" height="700" viewBox="0 0 3996 700" fill="none" xmlns="http://www.w3.org/2000/svg">
<path d="M942.8 556C920 556 899.8 551 882.2 541C865 531 851.2 518.4 840.8 503.2L847.4 485.8V550H791.6V85.6H846.8V358.6L845 337.6C855 324 869.2 313 887.6 304.6C906.4 295.8 927.2 291.4 950 291.4C972.4 291.4 992.8 296.8 1011.2 307.6C1029.6 318.4 1044.2 333.6 1055 353.2C1066.2 372.4 1071.8 395.4 1071.8 422.2C1071.8 450.2 1065.8 474.2 1053.8 494.2C1042.2 514.2 1026.6 529.6 1007 540.4C987.4 550.8 966 556 942.8 556ZM931.4 508.6C947.4 508.6 961.8 504.8 974.6 497.2C987.4 489.6 997.4 479.4 1004.6 466.6C1011.8 453.4 1015.4 438.4 1015.4 421.6C1015.4 405.6 1011.6 391.2 1004 378.4C996.8 365.2 986.8 354.8 974 347.2C961.6 339.6 947.4 335.8 931.4 335.8C917.8 335.8 905.2 338.4 893.6 343.6C882 348.8 872.2 356 864.2 365.2C856.2 374 850.6 384.4 847.4 396.4V446.2C850.6 458.2 856 469 863.6 478.6C871.2 487.8 880.8 495.2 892.4 500.8C904 506 917 508.6 931.4 508.6ZM1147.26 301.6H1203.06V550H1147.26V301.6ZM1143.06 211.6C1143.06 202.8 1146.46 195.4 1153.26 189.4C1160.46 183.4 1168.26 180.4 1176.66 180.4C1185.06 180.4 1192.46 183.4 1198.86 189.4C1205.66 195.4 1209.06 202.8 1209.06 211.6C1209.06 220.8 1205.66 228.4 1198.86 234.4C1192.46 240 1185.06 242.8 1176.66 242.8C1168.26 242.8 1160.46 239.8 1153.26 233.8C1146.46 227.8 1143.06 220.4 1143.06 211.6ZM1349.41 301.6L1354.21 362.2L1351.81 352.6C1359.81 334.2 1372.81 319.6 1390.81 308.8C1408.81 297.6 1429.61 292 1453.21 292C1476.81 292 1496.01 299 1510.81 313C1526.01 326.6 1533.81 344.4 1534.21 366.4V550H1477.81V386.2C1477.41 372.6 1473.41 361.6 1465.81 353.2C1458.61 344.4 1447.21 340 1431.61 340C1417.21 340 1404.21 344 1392.61 352C1381.01 360 1371.81 371 1365.01 385C1358.61 399 1355.41 415.2 1355.41 433.6V550H1299.61V301.6H1349.41ZM1734.45 556C1711.25 556 1690.05 551 1670.85 541C1652.05 531 1637.05 516.4 1625.85 497.2C1615.05 477.6 1609.65 453.8 1609.65 425.8C1609.65 398.2 1615.45 374.4 1627.05 354.4C1638.65 334 1654.05 318.4 1673.25 307.6C1692.85 296.8 1714.25 291.4 1737.45 291.4C1760.65 291.4 1780.25 296.8 1796.25 307.6C1812.25 318 1824.45 330.4 1832.85 344.8L1829.25 354.4L1834.65 301.6H1886.25V550H1830.45V485.2L1836.45 499.6C1834.85 503.6 1831.25 508.8 1825.65 515.2C1820.45 521.2 1813.25 527.4 1804.05 533.8C1795.25 540.2 1785.05 545.6 1773.45 550C1761.85 554 1748.85 556 1734.45 556ZM1749.45 509.8C1763.45 509.8 1776.05 507.2 1787.25 502C1798.45 496.8 1807.65 489.6 1814.85 480.4C1822.45 470.8 1827.65 459.4 1830.45 446.2V397.6C1827.25 385.6 1821.65 375.2 1813.65 366.4C1805.65 357.2 1796.05 350.2 1784.85 345.4C1773.65 340.2 1761.25 337.6 1747.65 337.6C1732.85 337.6 1719.25 341.2 1706.85 348.4C1694.45 355.6 1684.45 365.6 1676.85 378.4C1669.65 391.2 1666.05 406.2 1666.05 423.4C1666.05 439.4 1669.85 454 1677.45 467.2C1685.05 480.4 1695.25 490.8 1708.05 498.4C1720.85 506 1734.65 509.8 1749.45 509.8ZM2032.61 301.6L2038.01 373.6L2035.01 364C2041.41 348.8 2050.61 336 2062.61 325.6C2075.01 314.8 2087.81 306.6 2101.01 301C2114.61 295 2126.41 292 2136.41 292L2133.41 347.2C2114.61 346 2098.01 349.6 2083.61 358C2069.61 366.4 2058.41 377.6 2050.01 391.6C2042.01 405.6 2038.01 420.6 2038.01 436.6V550H1982.81V301.6H2032.61ZM2229.4 669.4L2393.2 301.6H2444.8L2284.6 669.4H2229.4ZM2290.6 551.8L2171.2 301.6H2234.2L2334.4 523.6L2290.6 551.8ZM2504.88 550V85.6H2559.48V359.2L2558.28 349C2566.68 332.6 2579.48 319 2596.68 308.2C2614.28 297.4 2634.88 292 2658.48 292C2682.08 292 2701.28 299 2716.08 313C2731.28 326.6 2739.08 344.4 2739.48 366.4V550H2683.08V386.2C2682.68 372.6 2678.68 361.6 2671.08 353.2C2663.88 344.4 2652.48 340 2636.88 340C2622.48 340 2609.48 344.2 2597.88 352.6C2586.28 360.6 2577.08 371.6 2570.28 385.6C2563.88 399.6 2560.68 415.6 2560.68 433.6V550H2504.88ZM2814.92 423.4C2814.92 398.6 2820.72 376.2 2832.32 356.2C2844.32 336.2 2860.72 320.4 2881.52 308.8C2902.32 297.2 2925.92 291.4 2952.32 291.4C2979.52 291.4 3003.32 297.2 3023.72 308.8C3044.12 320.4 3059.92 336.2 3071.12 356.2C3082.32 376.2 3087.92 398.6 3087.92 423.4C3087.92 448.2 3082.32 470.8 3071.12 491.2C3059.92 511.2 3043.92 527 3023.12 538.6C3002.72 550.2 2978.92 556 2951.72 556C2925.32 556 2901.72 550.6 2880.92 539.8C2860.52 528.6 2844.32 513.2 2832.32 493.6C2820.72 473.6 2814.92 450.2 2814.92 423.4ZM2870.72 424C2870.72 440 2874.32 454.6 2881.52 467.8C2888.72 480.6 2898.32 490.8 2910.32 498.4C2922.72 506 2936.32 509.8 2951.12 509.8C2966.72 509.8 2980.52 506 2992.52 498.4C3004.92 490.8 3014.52 480.6 3021.32 467.8C3028.12 454.6 3031.52 440 3031.52 424C3031.52 408 3028.12 393.6 3021.32 380.8C3014.52 367.6 3004.92 357.2 2992.52 349.6C2980.52 341.6 2966.72 337.6 2951.12 337.6C2935.92 337.6 2922.12 341.6 2909.72 349.6C2897.72 357.6 2888.12 368.2 2880.92 381.4C2874.12 394.2 2870.72 408.4 2870.72 424ZM3141.88 423.4C3141.88 398.6 3147.68 376.2 3159.28 356.2C3171.28 336.2 3187.68 320.4 3208.48 308.8C3229.28 297.2 3252.88 291.4 3279.28 291.4C3306.48 291.4 3330.28 297.2 3350.68 308.8C3371.08 320.4 3386.88 336.2 3398.08 356.2C3409.28 376.2 3414.88 398.6 3414.88 423.4C3414.88 448.2 3409.28 470.8 3398.08 491.2C3386.88 511.2 3370.88 527 3350.08 538.6C3329.68 550.2 3305.88 556 3278.68 556C3252.28 556 3228.68 550.6 3207.88 539.8C3187.48 528.6 3171.28 513.2 3159.28 493.6C3147.68 473.6 3141.88 450.2 3141.88 423.4ZM3197.68 424C3197.68 440 3201.28 454.6 3208.48 467.8C3215.68 480.6 3225.28 490.8 3237.28 498.4C3249.68 506 3263.28 509.8 3278.08 509.8C3293.68 509.8 3307.48 506 3319.48 498.4C3331.88 490.8 3341.48 480.6 3348.28 467.8C3355.08 454.6 3358.48 440 3358.48 424C3358.48 408 3355.08 393.6 3348.28 380.8C3341.48 367.6 3331.88 357.2 3319.48 349.6C3307.48 341.6 3293.68 337.6 3278.08 337.6C3262.88 337.6 3249.08 341.6 3236.68 349.6C3224.68 357.6 3215.08 368.2 3207.88 381.4C3201.08 394.2 3197.68 408.4 3197.68 424ZM3490.43 550V85.6H3546.23V550H3490.43ZM3606.23 385L3720.23 550H3654.83L3569.03 416.2L3606.23 385ZM3528.83 470.8L3523.43 417.4L3674.03 296.2L3708.23 325.6L3528.83 470.8ZM3858.86 554.8C3841.26 554.8 3824.06 551.8 3807.26 545.8C3790.86 539.4 3777.26 530 3766.46 517.6L3789.86 485.2C3800.26 495.2 3810.86 502.8 3821.66 508C3832.86 512.8 3843.86 515.2 3854.66 515.2C3862.66 515.2 3870.06 514.2 3876.86 512.2C3883.66 510.2 3889.06 507 3893.06 502.6C3897.46 497.8 3899.66 491.4 3899.66 483.4C3899.66 474.6 3896.66 467.6 3890.66 462.4C3885.06 457.2 3877.66 453 3868.46 449.8C3859.66 446.6 3850.26 443.6 3840.26 440.8C3819.86 434 3804.26 424.6 3793.46 412.6C3782.66 400.6 3777.26 386 3777.26 368.8C3777.26 355.6 3780.46 343.4 3786.86 332.2C3793.66 320.6 3803.46 311.2 3816.26 304C3829.46 296.8 3845.66 293.2 3864.86 293.2C3882.06 293.2 3897.46 295.4 3911.06 299.8C3924.66 303.8 3937.46 310.6 3949.46 320.2L3927.26 355C3920.06 347.4 3911.46 341.8 3901.46 338.2C3891.46 334.6 3882.46 332.6 3874.46 332.2C3867.66 331.8 3861.06 332.8 3854.66 335.2C3848.66 337.6 3843.66 341 3839.66 345.4C3835.66 349.8 3833.66 355 3833.66 361C3833.66 369.4 3836.46 376.2 3842.06 381.4C3847.66 386.6 3854.86 390.8 3863.66 394C3872.86 396.8 3881.86 399.8 3890.66 403C3903.06 406.6 3914.06 411.4 3923.66 417.4C3933.26 423.4 3940.86 430.8 3946.46 439.6C3952.46 448.4 3955.46 459.4 3955.46 472.6C3955.46 487.4 3951.86 501.2 3944.66 514C3937.86 526.4 3927.26 536.4 3912.86 544C3898.86 551.2 3880.86 554.8 3858.86 554.8Z" fill="#2C2C2C"/>
<circle cx="350" cy="350" r="350" fill="url(#paint0_linear_1_2)"/>
<path d="M202.5 681L202.5 95.9932" stroke="white" stroke-width="50"/>
<path d="M177.5 449.5C177.5 424.5 182.167 401 191.5 379C201.167 356.667 214.5 337 231.5 320C248.5 302.667 268 289.167 290 279.5C312.333 269.5 336.333 264.5 362 264.5C387.333 264.5 411 269.5 433 279.5C455.333 289.167 475 302.667 492 320C509.333 337 522.833 356.667 532.5 379C542.167 401 547 424.5 547 449.5C547 475.167 542.167 499.167 532.5 521.5C522.833 543.833 509.333 563.5 492 580.5C475 597.167 455.333 610.333 433 620C411 629.333 387.333 634 362 634C336.333 634 312.333 629.333 290 620C268 610.667 248.5 597.667 231.5 581C214.5 564.333 201.167 544.833 191.5 522.5C182.167 500.167 177.5 475.833 177.5 449.5ZM227.5 450C227.5 469 231 486.833 238 503.5C245 519.833 254.667 534.333 267 547C279.333 559.667 293.667 569.667 310 577C326.333 584 344 587.5 363 587.5C381.667 587.5 399.167 584 415.5 577C431.833 569.667 446 559.667 458 547C470 534.333 479.5 519.833 486.5 503.5C493.5 486.833 497 468.833 497 449.5C497 430.5 493.5 412.667 486.5 396C479.5 379 469.833 364.167 457.5 351.5C445.167 338.833 430.833 329 414.5 322C398.167 314.667 380.667 311 362 311C343 311 325.333 314.667 309 322C292.667 329.333 278.333 339.333 266 352C253.667 364.667 244.167 379.5 237.5 396.5C230.833 413.167 227.5 431 227.5 450Z" fill="white"/>
<path d="M177.813 96.0136L177.824 147.514L110.832 184.028L110.825 154.028L177.813 96.0136Z" fill="white"/>
<defs>
<linearGradient id="paint0_linear_1_2" x1="85" y1="102.5" x2="633.5" y2="663" gradientUnits="userSpaceOnUse">
<stop stop-color="#00DDDA"/>
<stop offset="1" stop-color="#0285FF"/>
</linearGradient>
</defs>
</svg>
