<svg width="700" height="700" viewBox="0 0 700 700" fill="none" xmlns="http://www.w3.org/2000/svg">
<circle cx="350" cy="350" r="350" fill="url(#paint0_linear_1_5)"/>
<path d="M202.5 681L202.5 95.9932" stroke="white" stroke-width="50"/>
<path d="M177.5 449.5C177.5 424.5 182.167 401 191.5 379C201.167 356.667 214.5 337 231.5 320C248.5 302.667 268 289.167 290 279.5C312.333 269.5 336.333 264.5 362 264.5C387.333 264.5 411 269.5 433 279.5C455.333 289.167 475 302.667 492 320C509.333 337 522.833 356.667 532.5 379C542.167 401 547 424.5 547 449.5C547 475.167 542.167 499.167 532.5 521.5C522.833 543.833 509.333 563.5 492 580.5C475 597.167 455.333 610.333 433 620C411 629.333 387.333 634 362 634C336.333 634 312.333 629.333 290 620C268 610.667 248.5 597.667 231.5 581C214.5 564.333 201.167 544.833 191.5 522.5C182.167 500.167 177.5 475.833 177.5 449.5ZM227.5 450C227.5 469 231 486.833 238 503.5C245 519.833 254.667 534.333 267 547C279.333 559.667 293.667 569.667 310 577C326.333 584 344 587.5 363 587.5C381.667 587.5 399.167 584 415.5 577C431.833 569.667 446 559.667 458 547C470 534.333 479.5 519.833 486.5 503.5C493.5 486.833 497 468.833 497 449.5C497 430.5 493.5 412.667 486.5 396C479.5 379 469.833 364.167 457.5 351.5C445.167 338.833 430.833 329 414.5 322C398.167 314.667 380.667 311 362 311C343 311 325.333 314.667 309 322C292.667 329.333 278.333 339.333 266 352C253.667 364.667 244.167 379.5 237.5 396.5C230.833 413.167 227.5 431 227.5 450Z" fill="white"/>
<path d="M177.813 96.0136L177.824 147.514L110.832 184.028L110.825 154.028L177.813 96.0136Z" fill="white"/>
<defs>
<linearGradient id="paint0_linear_1_5" x1="85" y1="102.5" x2="633.5" y2="663" gradientUnits="userSpaceOnUse">
<stop stop-color="#00DDDA"/>
<stop offset="1" stop-color="#0285FF"/>
</linearGradient>
</defs>
</svg>
